<svg width="37" height="37" viewBox="0 0 37 37" fill="none" xmlns="http://www.w3.org/2000/svg">
<path d="M21.8809 17.731C21.8939 17.6492 21.8853 17.5655 21.8559 17.4881C21.8265 17.4107 21.7773 17.3424 21.7133 17.2899C21.6493 17.2374 21.5726 17.2026 21.491 17.1889C21.4093 17.1752 21.3255 17.1832 21.2479 17.212C16.5199 19.183 13.7869 24.003 13.3549 24.805C13.3144 24.8791 13.2947 24.9627 13.2979 25.047L13.6299 35.693V35.733C15.0784 36.099 16.5668 36.2841 18.0609 36.284C18.9741 36.2836 19.886 36.2147 20.7889 36.078C20.8112 35.9888 20.821 35.8969 20.8179 35.805C20.7675 29.7634 21.1227 23.7251 21.8809 17.731Z" fill="url(#paint0_linear_31_3)"/>
<path d="M18.0649 15.853C20.9235 15.853 23.2409 13.5406 23.2409 10.688C23.2409 7.83546 20.9235 5.52301 18.0649 5.52301C15.2062 5.52301 12.8889 7.83546 12.8889 10.688C12.8889 13.5406 15.2062 15.853 18.0649 15.853Z" fill="url(#paint1_linear_31_3)"/>
<path d="M31.6199 30.144L31.6969 30.058C31.8489 29.874 31.9969 29.691 32.1489 29.507L32.1599 29.492C34.2902 26.8268 35.6265 23.6153 36.0154 20.2256C36.4044 16.8359 35.8304 13.4052 34.3591 10.3267C32.8878 7.2483 30.5789 4.64673 27.697 2.82026C24.815 0.993798 21.4768 0.0163599 18.0649 0C14.665 0.0183725 11.3385 0.990657 8.46392 2.80623C5.58933 4.62181 3.28205 7.20777 1.80459 10.2699C0.327132 13.332 -0.261184 16.7474 0.106578 20.1274C0.47434 23.5074 1.78341 26.7163 3.88486 29.389L3.92486 29.439C4.02486 29.573 4.13786 29.703 4.24586 29.834L4.39286 30.007C4.49286 30.124 4.59286 30.238 4.69286 30.352C4.79286 30.466 4.87686 30.558 4.97686 30.659L4.99886 30.676C7.02232 32.8069 9.5349 34.4123 12.3189 35.353V32C9.1306 30.6452 6.50597 28.234 4.88618 25.1718C3.2664 22.1096 2.75022 18.5832 3.42441 15.1852C4.0986 11.7872 5.92206 8.72499 8.58827 6.5132C11.2545 4.30142 14.6008 3.07496 18.0649 3.04C21.6794 3.07352 25.1616 4.40453 27.877 6.79049C30.5923 9.17646 32.3601 12.4586 32.8582 16.0388C33.3563 19.619 32.5516 23.259 30.5906 26.2956C28.6296 29.3321 25.643 31.5631 22.1749 32.582V35.82C25.4411 35.0539 28.4288 33.3916 30.8019 31.02C30.8749 30.945 30.9489 30.871 31.0199 30.796C31.0909 30.721 31.2039 30.612 31.2789 30.523C31.3989 30.4 31.5079 30.271 31.6199 30.144Z" fill="url(#paint2_linear_31_3)"/>
<defs>
<linearGradient id="paint0_linear_31_3" x1="14.1049" y1="22.9511" x2="25.5536" y2="25.2663" gradientUnits="userSpaceOnUse">
<stop stop-color="#055B8F"/>
<stop offset="1" stop-color="#79CDE4"/>
</linearGradient>
<linearGradient id="paint1_linear_31_3" x1="14.4106" y1="7.03119" x2="21.7035" y2="14.3603" gradientUnits="userSpaceOnUse">
<stop stop-color="#055B8F"/>
<stop offset="1" stop-color="#79CDE4"/>
</linearGradient>
<linearGradient id="paint2_linear_31_3" x1="5.27554" y1="5.33718" x2="30.633" y2="31.1697" gradientUnits="userSpaceOnUse">
<stop stop-color="#055B8F"/>
<stop offset="1" stop-color="#79CDE4"/>
</linearGradient>
</defs>
</svg>
